REM DIRINDEX 1\4,1\2\5,1\2\6,1\3\7,1\3\8
REM DIRNAME cjc124,folder01,folder02,folder03,folder04,folder05,folder06,folder07
TITLE ""
FILE "062_Day31_Check3_Sentences.mp3" MP3
  TRACK 01 AUDIO
    TITLE "0:"
    INDEX 01 00:00:00
  TRACK 02 AUDIO
    TITLE "4:cjc124_2016"
    INDEX 01 00:00:25
  TRACK 03 AUDIO
    TITLE "0:"
    INDEX 01 00:02:00
  TRACK 04 AUDIO
    TITLE "7:cjc124_2017"
    INDEX 01 00:02:47
  TRACK 05 AUDIO
    TITLE "0:"
    INDEX 01 00:05:38
  TRACK 06 AUDIO
    TITLE "8:cjc124_2018"
    INDEX 01 00:05:54
  TRACK 07 AUDIO
    TITLE "0:"
    INDEX 01 00:08:50
  TRACK 08 AUDIO
    TITLE "7:cjc124_2019"
    INDEX 01 00:09:12
  TRACK 09 AUDIO
    TITLE "0:"
    INDEX 01 00:11:44
  TRACK 10 AUDIO
    TITLE "8:cjc124_2020"
    INDEX 01 00:11:62
  TRACK 11 AUDIO
    TITLE "0:"
    INDEX 01 00:14:56
  TRACK 12 AUDIO
    TITLE "7:cjc124_2021"
    INDEX 01 00:15:23
  TRACK 13 AUDIO
    TITLE "0:"
    INDEX 01 00:18:23
  TRACK 14 AUDIO
    TITLE "8:cjc124_2022"
    INDEX 01 00:18:41
  TRACK 15 AUDIO
    TITLE "0:"
    INDEX 01 00:21:23
  TRACK 16 AUDIO
    TITLE "7:cjc124_2023"
    INDEX 01 00:21:60
  TRACK 17 AUDIO
    TITLE "0:"
    INDEX 01 00:26:15
  TRACK 18 AUDIO
    TITLE "8:cjc124_2024"
    INDEX 01 00:26:32
  TRACK 19 AUDIO
    TITLE "0:"
    INDEX 01 00:29:54
  TRACK 20 AUDIO
    TITLE "7:cjc124_2025"
    INDEX 01 00:30:18
  TRACK 21 AUDIO
    TITLE "0:"
    INDEX 01 00:34:00
  TRACK 22 AUDIO
    TITLE "8:cjc124_2026"
    INDEX 01 00:34:18
  TRACK 23 AUDIO
    TITLE "0:"
    INDEX 01 00:38:14
  TRACK 24 AUDIO
    TITLE "7:cjc124_2027"
    INDEX 01 00:38:51
  TRACK 25 AUDIO
    TITLE "0:"
    INDEX 01 00:41:69
  TRACK 26 AUDIO
    TITLE "8:cjc124_2028"
    INDEX 01 00:42:12
  TRACK 27 AUDIO
    TITLE "0:"
    INDEX 01 00:45:53
  TRACK 28 AUDIO
    TITLE "7:cjc124_2029"
    INDEX 01 00:46:15
  TRACK 29 AUDIO
    TITLE "0:"
    INDEX 01 00:49:72
  TRACK 30 AUDIO
    TITLE "8:cjc124_2030"
    INDEX 01 00:50:13
  TRACK 31 AUDIO
    TITLE "0:"
    INDEX 01 00:53:27
  TRACK 32 AUDIO
    TITLE "7:cjc124_2031"
    INDEX 01 00:53:62
  TRACK 33 AUDIO
    TITLE "0:"
    INDEX 01 00:57:41
  TRACK 34 AUDIO
    TITLE "8:cjc124_2032"
    INDEX 01 00:57:58
  TRACK 35 AUDIO
    TITLE "0:"
    INDEX 01 01:01:72
  TRACK 36 AUDIO
    TITLE "7:cjc124_2033"
    INDEX 01 01:02:38
  TRACK 37 AUDIO
    TITLE "0:"
    INDEX 01 01:05:30
  TRACK 38 AUDIO
    TITLE "8:cjc124_2034"
    INDEX 01 01:05:46
  TRACK 39 AUDIO
    TITLE "0:"
    INDEX 01 01:08:56
  TRACK 40 AUDIO
    TITLE "7:cjc124_2035"
    INDEX 01 01:09:16
  TRACK 41 AUDIO
    TITLE "0:"
    INDEX 01 01:11:45
  TRACK 42 AUDIO
    TITLE "8:cjc124_2036"
    INDEX 01 01:11:62
  TRACK 43 AUDIO
    TITLE "0:"
    INDEX 01 01:14:29
  TRACK 44 AUDIO
    TITLE "7:cjc124_2037"
    INDEX 01 01:14:65
  TRACK 45 AUDIO
    TITLE "0:"
    INDEX 01 01:18:41
  TRACK 46 AUDIO
    TITLE "8:cjc124_2038"
    INDEX 01 01:18:58
  TRACK 47 AUDIO
    TITLE "0:"
    INDEX 01 01:22:62
  TRACK 48 AUDIO
    TITLE "7:cjc124_2039"
    INDEX 01 01:23:24
  TRACK 49 AUDIO
    TITLE "0:"
    INDEX 01 01:27:71
  TRACK 50 AUDIO
    TITLE "8:cjc124_2040"
    INDEX 01 01:28:16
  TRACK 51 AUDIO
    TITLE "0:"
    INDEX 01 01:32:02
  TRACK 52 AUDIO
    TITLE "7:cjc124_2041"
    INDEX 01 01:32:39
  TRACK 53 AUDIO
    TITLE "0:"
    INDEX 01 01:35:24
  TRACK 54 AUDIO
    TITLE "8:cjc124_2042"
    INDEX 01 01:35:39
  TRACK 55 AUDIO
    TITLE "0:"
    INDEX 01 01:37:48
  TRACK 56 AUDIO
    TITLE "7:cjc124_2043"
    INDEX 01 01:38:06
  TRACK 57 AUDIO
    TITLE "0:"
    INDEX 01 01:39:72
  TRACK 58 AUDIO
    TITLE "8:cjc124_2044"
    INDEX 01 01:40:13
  TRACK 59 AUDIO
    TITLE "0:"
    INDEX 01 01:42:65
  TRACK 60 AUDIO
    TITLE "7:cjc124_2045"
    INDEX 01 01:43:29
  TRACK 61 AUDIO
    TITLE "0:"
    INDEX 01 01:47:11
  TRACK 62 AUDIO
    TITLE "8:cjc124_2046"
    INDEX 01 01:47:29
  TRACK 63 AUDIO
    TITLE "0:"
    INDEX 01 01:51:21
  TRACK 64 AUDIO
    TITLE "7:cjc124_2047"
    INDEX 01 01:51:56
  TRACK 65 AUDIO
    TITLE "0:"
    INDEX 01 01:55:05
  TRACK 66 AUDIO
    TITLE "8:cjc124_2048"
    INDEX 01 01:55:24
  TRACK 67 AUDIO
    TITLE "0:"
    INDEX 01 01:57:47
